<svg xmlns="http://www.w3.org/2000/svg" xmlns:xlink="http://www.w3.org/1999/xlink" viewBox="0 0 43.5 38.55"><defs><style>.cls-1{fill:none;}.cls-2{clip-path:url(#clip-path);}.cls-3{clip-path:url(#clip-path-2);}.cls-4{fill:#52bed1;}.cls-5{fill:#ec9e0e;}.cls-6{fill:#8c5de5;}.cls-7{fill:#dc2e4e;}.cls-8{fill:#fff;}</style><clipPath id="clip-path" transform="translate(1.23 6.69)"><rect class="cls-1" width="32" height="29.04"/></clipPath><clipPath id="clip-path-2" transform="translate(1.23 6.69)"><path class="cls-1" d="M10.11,3.21a2.7,2.7,0,0,0-1.73,0c-1.66.64-2.24,2.79-2.3,3,0,2.9,0,5.8,0,8.7a10.23,10.23,0,0,0,.93,3.75,8.12,8.12,0,0,0,5,4.29,7.92,7.92,0,0,0,6.75-1.11,7.44,7.44,0,0,0,3-3.8,8.32,8.32,0,0,0,.36-1.59c.21-6,.13-10.53.17-12.33a4.46,4.46,0,0,0-.73-2.64,2.94,2.94,0,0,0-.86-.75,2.25,2.25,0,0,0-.65-.22L12.5.57a2.92,2.92,0,0,0-1.55,1A4.22,4.22,0,0,0,10.11,3.21Z"/></clipPath></defs><g id="Layer_2" data-name="Layer 2"><g id="Layer_1-2" data-name="Layer 1"><g class="cls-2"><g class="cls-3"><path class="cls-4" d="M11.69,29.55H9.06a3,3,0,0,0,.84-3.64,4.78,4.78,0,0,1,.6.67A6.75,6.75,0,0,1,11.69,29.55Z" transform="translate(1.23 6.69)"/><path class="cls-4" d="M7.55,29.55H4V28.12a3.75,3.75,0,0,1,.65-1.68,1,1,0,0,1,1.7.13A3,3,0,0,0,7.55,29.55Z" transform="translate(1.23 6.69)"/><path class="cls-4" d="M18.25,29.55H13.31l0-.19a7.25,7.25,0,0,1,.86-2.89c.83-1,2.3-.64,3.11.46a2.9,2.9,0,0,1,.19.29A6.63,6.63,0,0,1,18.25,29.55Z" transform="translate(1.23 6.69)"/><path class="cls-4" d="M20.09,29.55H19c.24-1,.47-2,.71-3A8.13,8.13,0,0,0,20.09,29.55Z" transform="translate(1.23 6.69)"/><path class="cls-4" d="M28.37,29.55H23a28.91,28.91,0,0,1,.44-3.33,1.79,1.79,0,0,1,2.94-.89Z" transform="translate(1.23 6.69)"/><path class="cls-4" d="M11.73,11l-1,.38a5.24,5.24,0,0,0-.79-.94c.74,1.38,0,3.6-1.35,3.84S6,12.7,6.34,11.08a1,1,0,0,0-1.7-.14A3.79,3.79,0,0,0,4,12.63V7.74a3.8,3.8,0,0,1,.65-1.68,1,1,0,0,1,1.7.14C6,7.82,7.25,9.61,8.55,9.37S10.64,6.91,9.9,5.52A6.7,6.7,0,0,1,11.73,11Z" transform="translate(1.23 6.69)"/><path class="cls-4" d="M18.44,11.48l-1,.1c-.79-1.2-2.34-1.71-3.21-.6a7.25,7.25,0,0,0-.86,2.88c-.21,1-.8,2.1-1.62,2a7.07,7.07,0,0,0-1-4.51l1-.38c.82.1,1.41-1,1.62-2a7.25,7.25,0,0,1,.86-2.89c.9-1.14,2.55-.55,3.3.75A10.39,10.39,0,0,1,18.44,11.48Z" transform="translate(1.23 6.69)"/><path class="cls-4" d="M29.94,11.41a11.16,11.16,0,0,0-.9,4c-.9-1.87-1.81-3.73-2.71-5.6a1.79,1.79,0,0,0-2.94.89c-.52,1.44,0,3.54-1,4.41-.72.59-1.75,0-2.2-.92A7.57,7.57,0,0,1,19.68,11c-.41,1.78-.83,3.55-1.24,5.33a10.32,10.32,0,0,0-.93-4.63l-.09-.15,1-.1c.41-1.78.83-3.56,1.24-5.33a7.62,7.62,0,0,0,.48,3.18c.45.93,1.48,1.51,2.2.91,1-.86.51-3,1-4.41A1.8,1.8,0,0,1,26.33,5c.9,1.87,1.81,3.73,2.71,5.6Z" transform="translate(1.23 6.69)"/><path class="cls-5" d="M17.94,26.85l-.62.08c-.81-1.1-2.28-1.51-3.11-.46a7.25,7.25,0,0,0-.86,2.89l0,.19H11.69a6.75,6.75,0,0,0-1.19-3l.85-.23c.76,0,1.3-1,1.51-2a7.24,7.24,0,0,1,.85-2.88c.9-1.15,2.55-.55,3.31.75A10.34,10.34,0,0,1,17.94,26.85Z" transform="translate(1.23 6.69)"/><path class="cls-5" d="M42.27,6.48,41.35,12l-1.28-.07a2.2,2.2,0,0,1-.28-.44l-.08-.18a8.65,8.65,0,0,1-.15-3,4.21,4.21,0,0,0-.45-1.95L39,6.19a.88.88,0,0,0-1-.47c-1.38.5-.53,3.86-1.84,4.57-.81.44-1.64-.66-1.93-1.72s-.37-2.31-1-3c-.89-1-2.38-.41-3.1.77a10.16,10.16,0,0,0-1,4.25c-.9-1.87-1.81-3.73-2.71-5.6a1.8,1.8,0,0,0-2.94.88c-.52,1.45,0,3.55-1,4.41-.72.6-1.75,0-2.2-.91a7.62,7.62,0,0,1-.48-3.18c-.41,1.77-.83,3.55-1.24,5.33a10.39,10.39,0,0,0-.93-4.64c-.75-1.3-2.4-1.89-3.3-.75A7.25,7.25,0,0,0,13.35,9c-.21,1-.8,2.09-1.62,2A6.7,6.7,0,0,0,9.9,5.52c.74,1.39,0,3.6-1.35,3.85S6,7.82,6.34,6.2a1,1,0,0,0-1.7-.14A3.8,3.8,0,0,0,4,7.74V2.13A3.8,3.8,0,0,1,4.64.45a1,1,0,0,1,1.7.14C6,2.21,7.25,4,8.55,3.76S10.64,1.3,9.9-.08a6.68,6.68,0,0,1,1.83,5.44c.82.11,1.41-1,1.62-2A7.25,7.25,0,0,1,14.21.48c.9-1.14,2.55-.55,3.3.75a10.39,10.39,0,0,1,.93,4.64c.41-1.78.83-3.56,1.24-5.33a7.59,7.59,0,0,0,.48,3.18c.45.94,1.48,1.51,2.2.91,1-.86.51-3,1-4.4a1.79,1.79,0,0,1,2.94-.89c.9,1.87,1.81,3.73,2.71,5.6a10.16,10.16,0,0,1,1-4.25c.72-1.18,2.21-1.75,3.1-.77.67.73.76,2,1,3s1.12,2.16,1.93,1.72C37.45,4,36.6.61,38,.11a.85.85,0,0,1,1,.45,4,4,0,0,1,.56,2.11c0,1.27-.24,2.78.51,3.61l1.28.07Z" transform="translate(1.23 6.69)"/><path class="cls-6" d="M19.18,21.52q-.62,2.67-1.24,5.33A10.34,10.34,0,0,0,17,22.22c-.76-1.3-2.41-1.9-3.31-.75a7.24,7.24,0,0,0-.85,2.88c-.21,1-.75,2-1.51,2h-.11A6.76,6.76,0,0,0,9.41,20.9c.73,1.39-.05,3.6-1.35,3.84s-2.55-1.55-2.22-3.17a1,1,0,0,0-1.69-.13,1.77,1.77,0,0,0-.16.22V17.51a3.75,3.75,0,0,1,.65-1.68,1,1,0,0,1,1.7.13c-.33,1.63.91,3.42,2.21,3.18s2.09-2.46,1.35-3.85a5.61,5.61,0,0,1,.79.94,7.07,7.07,0,0,1,1,4.51c.82.1,1.41-1,1.62-2a7.25,7.25,0,0,1,.86-2.89c.87-1.1,2.42-.6,3.21.6l.09.15a10.34,10.34,0,0,1,.93,4.63h0Z" transform="translate(1.23 6.69)"/><path class="cls-6" d="M39.85.42,39,.56a.85.85,0,0,0-1-.45C36.6.61,37.45,4,36.14,4.68,35.33,5.12,34.5,4,34.21,3s-.37-2.31-1-3c-.89-1-2.38-.41-3.1.77a10.16,10.16,0,0,0-1,4.25c-.9-1.87-1.81-3.73-2.71-5.6a1.79,1.79,0,0,0-2.94.89c-.52,1.44,0,3.54-1,4.4-.72.6-1.75,0-2.2-.91A7.59,7.59,0,0,1,19.68.54c-.41,1.77-.83,3.55-1.24,5.33a10.39,10.39,0,0,0-.93-4.64c-.75-1.3-2.4-1.89-3.3-.75a7.25,7.25,0,0,0-.86,2.89c-.21,1-.8,2.1-1.62,2A6.68,6.68,0,0,0,9.9-.08c.74,1.38,0,3.6-1.35,3.84S6,2.21,6.34.59A1,1,0,0,0,4.64.45,3.8,3.8,0,0,0,4,2.13V-3.41A3.79,3.79,0,0,1,4.64-5.1,1,1,0,0,1,6.34-5C6-3.34,7.25-1.55,8.55-1.79S10.64-4.25,9.9-5.63A6.69,6.69,0,0,1,11.73-.18c.82.1,1.41-1,1.62-2a7.25,7.25,0,0,1,.86-2.88c.9-1.15,2.55-.56,3.3.75A10.32,10.32,0,0,1,18.44.32c.41-1.78.83-3.55,1.24-5.33a7.59,7.59,0,0,0,.48,3.18c.45.93,1.48,1.51,2.2.92,1-.87.51-3,1-4.41a1.79,1.79,0,0,1,2.94-.89c.9,1.87,1.81,3.73,2.71,5.6a10.08,10.08,0,0,1,1-4.24c.72-1.19,2.21-1.76,3.1-.78.67.73.76,2,1,3S35.33-.43,36.14-.87c1.31-.7.46-4.07,1.84-4.57A.85.85,0,0,1,39-5a4,4,0,0,1,.56,2.12A7,7,0,0,0,39.85.42Z" transform="translate(1.23 6.69)"/><path class="cls-7" d="M11.73,15.86l-1,.37a5.61,5.61,0,0,0-.79-.94c.74,1.39,0,3.6-1.35,3.85S6,17.59,6.34,16a1,1,0,0,0-1.7-.13A3.75,3.75,0,0,0,4,17.51V12.63a3.79,3.79,0,0,1,.65-1.69,1,1,0,0,1,1.7.14c-.33,1.62.91,3.41,2.21,3.17s2.09-2.46,1.35-3.84a5.24,5.24,0,0,1,.79.94A7.07,7.07,0,0,1,11.73,15.86Z" transform="translate(1.23 6.69)"/><path class="cls-1" d="M4,2.13c0,.2-.06.41-.09.6A4.49,4.49,0,0,1,3.11,5C2.27,5.91.87,5.36.2,4.25a9.58,9.58,0,0,1-.94-4" transform="translate(1.23 6.69)"/><path class="cls-1" d="M4,7.74l-.09.6a4.49,4.49,0,0,1-.79,2.25C2.27,11.52.87,11,.2,9.85a9.49,9.49,0,0,1-.94-4" transform="translate(1.23 6.69)"/><path class="cls-7" d="M29.94,16.3a11.11,11.11,0,0,0-.9,4l-2.71-5.61a1.8,1.8,0,0,0-2.94.9c-.52,1.43,0,3.54-1,4.4-.72.6-1.75,0-2.2-.91a7.62,7.62,0,0,1-.48-3.18c-.41,1.77-.83,3.54-1.24,5.32a10.34,10.34,0,0,0-.93-4.63l-.09-.15,1-.1c.41-1.78.83-3.55,1.24-5.33a7.57,7.57,0,0,0,.48,3.18c.45.94,1.48,1.51,2.2.92,1-.87.51-3,1-4.41a1.79,1.79,0,0,1,2.94-.89c.9,1.87,1.81,3.73,2.71,5.6Z" transform="translate(1.23 6.69)"/><path class="cls-7" d="M18.44,16.36l-1,.1c-.79-1.2-2.34-1.7-3.21-.6a7.25,7.25,0,0,0-.86,2.89c-.21,1-.8,2.09-1.62,2a7.07,7.07,0,0,0-1-4.51l1-.37c.82.1,1.41-1,1.62-2A7.25,7.25,0,0,1,14.21,11c.87-1.11,2.42-.6,3.21.6l.09.15A10.32,10.32,0,0,1,18.44,16.36Z" transform="translate(1.23 6.69)"/><path class="cls-1" d="M4,12.63l-.09.59a4.49,4.49,0,0,1-.79,2.25c-.84.93-2.24.39-2.91-.74a9.42,9.42,0,0,1-.94-4" transform="translate(1.23 6.69)"/><path class="cls-1" d="M4,17.51l-.09.6a4.49,4.49,0,0,1-.79,2.25c-.84.92-2.24.38-2.91-.74a9.49,9.49,0,0,1-.94-4" transform="translate(1.23 6.69)"/><path class="cls-5" d="M10.5,26.58a4.78,4.78,0,0,0-.6-.67,3,3,0,0,1-.84,3.64H7.55a3,3,0,0,1-1.21-3,1,1,0,0,0-1.7-.13A3.75,3.75,0,0,0,4,28.12V21.66a1.77,1.77,0,0,1,.16-.22,1,1,0,0,1,1.69.13c-.33,1.62.92,3.42,2.22,3.17s2.08-2.45,1.35-3.84a6.76,6.76,0,0,1,1.83,5.45h.11Z" transform="translate(1.23 6.69)"/><path class="cls-1" d="M-1.23,21.23a9.49,9.49,0,0,0,.93,4l.18.26c.72.94,2,1.33,2.73.47a4.33,4.33,0,0,0,.79-2.24A5.76,5.76,0,0,1,4,21.66" transform="translate(1.23 6.69)"/><path class="cls-6" d="M29.87,21.28a2.27,2.27,0,0,0-.29.4,10,10,0,0,0-1,4.25q-1.36-2.8-2.71-5.61a1.81,1.81,0,0,0-2.95.89c-.51,1.44,0,3.54-1,4.41-.72.6-1.75,0-2.2-.91a7.67,7.67,0,0,1-.49-3.19l-.74-.28h0c.41-1.78.83-3.55,1.24-5.32a7.62,7.62,0,0,0,.48,3.18c.45.93,1.48,1.51,2.2.91,1-.86.51-3,1-4.4a1.8,1.8,0,0,1,2.94-.9L29,20.32Z" transform="translate(1.23 6.69)"/><path class="cls-1" d="M7.55,29.55a1.47,1.47,0,0,0,1,.2,1.6,1.6,0,0,0,.51-.2" transform="translate(1.23 6.69)"/><path class="cls-1" d="M-.74,26.23a9.49,9.49,0,0,0,.94,4c.67,1.12,2.07,1.66,2.91.74a4.49,4.49,0,0,0,.79-2.25l.09-.6" transform="translate(1.23 6.69)"/><path class="cls-1" d="M11.69,29.55a6.78,6.78,0,0,1,0,1.8c.77.1,1.33-.86,1.58-1.8" transform="translate(1.23 6.69)"/><path class="cls-5" d="M39.3,26.84l-.11.05c-.27-.6-.7-1-1.21-.8-1,.36-.83,2.19-1.14,3.46H34.43a4.84,4.84,0,0,1-.22-.6c-.28-1.06-.37-2.31-1-3-.89-1-2.38-.42-3.1.77a7.41,7.41,0,0,0-.87,2.87h-.83l-2-4.22a1.79,1.79,0,0,0-2.94.89A28.91,28.91,0,0,0,23,29.55H20.09a8.13,8.13,0,0,1-.41-3c-.24,1-.47,2-.71,3h-.72a6.63,6.63,0,0,0-.74-2.33,2.9,2.9,0,0,0-.19-.29l.62-.08q.63-2.66,1.24-5.33a7.67,7.67,0,0,0,.49,3.19c.45.93,1.48,1.51,2.2.91,1-.87.51-3,1-4.41a1.81,1.81,0,0,1,2.95-.89q1.35,2.81,2.71,5.61a10,10,0,0,1,1-4.25,2.27,2.27,0,0,1,.29-.4c.78-.9,2-1.24,2.81-.38s.75,2,1,3.05,1.11,2.15,1.92,1.71c1.31-.7.47-4.07,1.84-4.57,1-.34,1.61,1.3,1.58,2.57A7.71,7.71,0,0,0,39.3,26.84Z" transform="translate(1.23 6.69)"/><path class="cls-1" d="M20.09,29.55l.07.16c.45.93,1.48,1.51,2.2.91A1.92,1.92,0,0,0,23,29.55" transform="translate(1.23 6.69)"/><path class="cls-1" d="M18.25,29.55c.11.75.15,1.54.19,2.3l.53-2.3" transform="translate(1.23 6.69)"/></g></g><path class="cls-8" d="M13.81,18.44H12.45V15.39l-2.79,0-.1,0a1.9,1.9,0,0,1-.81-.63,3.64,3.64,0,0,1-.28-3.49A2.42,2.42,0,0,1,9.94,9.86l.08,0,7.69.14a3.75,3.75,0,0,1,2.14,1.12,5.45,5.45,0,0,1,1.31,2.27L19.9,14A3.84,3.84,0,0,0,19,12.47a2.41,2.41,0,0,0-1.41-.74l-7.43-.14a1,1,0,0,0-.54.5,1.5,1.5,0,0,0,.09,1.36.56.56,0,0,0,.18.16l3.91.05Z" transform="translate(1.23 6.69)"/><polygon class="cls-8" points="16.14 17.48 14.79 17.48 14.82 9.75 16.17 9.76 16.14 17.48"/><polygon class="cls-8" points="12.86 17.37 11.5 17.35 11.55 11.93 12.9 11.95 12.86 17.37"/><polygon class="cls-8" points="19.32 17.54 17.96 17.53 17.99 9.72 19.35 9.73 19.32 17.54"/></g></g></svg>