<svg xmlns="http://www.w3.org/2000/svg" viewBox="0 0 32.53 31.18"><defs><style>.cls-1{fill:#8c5de5;}.cls-2,.cls-4{fill:#dc2e4e;}.cls-3{fill:#ec9e0e;}.cls-4{stroke:#be1e2d;}.cls-4,.cls-5{stroke-linecap:round;stroke-linejoin:round;stroke-width:0.74px;}.cls-5{fill:none;stroke:#dc2e4e;}</style></defs><g id="Layer_2" data-name="Layer 2"><g id="Layer_1-2" data-name="Layer 1"><path class="cls-1" d="M14.29,8a3.83,3.83,0,0,0-2,.05A4.57,4.57,0,0,0,9.53,11q0,4.23.05,8.46a8.52,8.52,0,0,0,1.1,3.65,9.53,9.53,0,0,0,6,4.18,11.16,11.16,0,0,0,8-1.09,7.73,7.73,0,0,0,3.53-3.7A6.22,6.22,0,0,0,28.59,21c.26-5.85.16-10.24.21-12a3.82,3.82,0,0,0-.86-2.57,3.59,3.59,0,0,0-1-.72,3.08,3.08,0,0,0-.77-.22l-9,0a3.79,3.79,0,0,0-1.83,1A4,4,0,0,0,14.29,8Z"/><path class="cls-2" d="M12.34,7.2a3.73,3.73,0,0,0-2,0A4.56,4.56,0,0,0,7.58,10.2c0,2.82,0,5.64,0,8.46a8.81,8.81,0,0,0,1.1,3.65,9.55,9.55,0,0,0,6,4.17,11.14,11.14,0,0,0,8-1.08,7.79,7.79,0,0,0,3.54-3.7,6.13,6.13,0,0,0,.41-1.54c.26-5.86.16-10.24.21-12A3.75,3.75,0,0,0,26,5.59a3.59,3.59,0,0,0-1-.72,3.08,3.08,0,0,0-.77-.22l-9,0a3.7,3.7,0,0,0-1.83,1A3.9,3.9,0,0,0,12.34,7.2Z"/><path class="cls-3" d="M8.88,6.07a3.77,3.77,0,0,0-2.05,0,4.56,4.56,0,0,0-2.72,3c0,2.82,0,5.64,0,8.46a8.74,8.74,0,0,0,1.1,3.64,9.57,9.57,0,0,0,6,4.18,11.19,11.19,0,0,0,8-1.08,7.75,7.75,0,0,0,3.54-3.7A6.83,6.83,0,0,0,23.18,19c.25-5.86.15-10.25.21-12a3.82,3.82,0,0,0-.87-2.57,3.59,3.59,0,0,0-1-.72,2.78,2.78,0,0,0-.77-.23h-9a3.65,3.65,0,0,0-1.83,1A3.69,3.69,0,0,0,8.88,6.07Z"/><path class="cls-4" d="M22.72,14.69a5.26,5.26,0,0,0-1.61-2.2,5.13,5.13,0,0,0-2.62-1.07l-11-.16a2.34,2.34,0,0,0-1.26,3.86A2,2,0,0,0,7,15.6l4.92.05v4.5"/><line class="cls-4" x1="13.45" y1="3.84" x2="13.5" y2="11.34"/><line class="cls-4" x1="8.66" y1="6.49" x2="8.69" y2="11.21"/><line class="cls-4" x1="18.09" y1="3.81" x2="18.15" y2="11.41"/><path class="cls-5" d="M2.2,14.15A12.82,12.82,0,0,1,4.85,6.07,12.36,12.36,0,0,1,12,1.61"/><path class="cls-5" d="M.37,12.91A12.88,12.88,0,0,1,3,4.83,12.31,12.31,0,0,1,10.12.37"/><path class="cls-5" d="M30.73,18a12.71,12.71,0,0,1-3.2,7.86,12.21,12.21,0,0,1-7.39,3.93"/><path class="cls-5" d="M32.15,19A12.71,12.71,0,0,1,29,26.87a12.21,12.21,0,0,1-7.39,3.93"/></g></g></svg>