<svg xmlns="http://www.w3.org/2000/svg" viewBox="0 0 32.78 31.43"><defs><style>.cls-1{fill:#8c5de5;}.cls-2,.cls-4{fill:#dc2e4e;}.cls-3{fill:#ec9e0e;}.cls-4{stroke:#be1e2d;}.cls-4,.cls-5{stroke-linecap:round;stroke-linejoin:round;}.cls-5{fill:none;stroke:#dc2e4e;}</style></defs><g id="Layer_2" data-name="Layer 2"><g id="Layer_1-2" data-name="Layer 1"><path class="cls-1" d="M14.42,8.17a3.83,3.83,0,0,0-2,.05,4.63,4.63,0,0,0-2.73,2.95l.06,8.46a8.52,8.52,0,0,0,1.1,3.65,9.46,9.46,0,0,0,6,4.17,11.08,11.08,0,0,0,8-1.08,7.78,7.78,0,0,0,3.53-3.7,6.22,6.22,0,0,0,.42-1.54c.26-5.85.16-10.24.21-12a3.82,3.82,0,0,0-.86-2.57,3.56,3.56,0,0,0-1-.72,2.92,2.92,0,0,0-.76-.22l-9,0a3.66,3.66,0,0,0-1.83,1A3.9,3.9,0,0,0,14.42,8.17Z"/><path class="cls-2" d="M12.47,7.33a3.73,3.73,0,0,0-2,0,4.56,4.56,0,0,0-2.72,3q0,4.23,0,8.46a8.74,8.74,0,0,0,1.1,3.64,9.55,9.55,0,0,0,6,4.18,11.19,11.19,0,0,0,8-1.08,7.74,7.74,0,0,0,3.53-3.7,6.22,6.22,0,0,0,.42-1.54c.26-5.86.16-10.25.21-12a3.81,3.81,0,0,0-.86-2.57,3.59,3.59,0,0,0-1-.72,2.71,2.71,0,0,0-.77-.22l-9,0a3.62,3.62,0,0,0-1.83,1A3.84,3.84,0,0,0,12.47,7.33Z"/><path class="cls-3" d="M9,6.2a3.77,3.77,0,0,0-2,0A4.56,4.56,0,0,0,4.24,9.2c0,2.82,0,5.64,0,8.46a8.74,8.74,0,0,0,1.1,3.64,9.57,9.57,0,0,0,6,4.18,11.19,11.19,0,0,0,8-1.08,7.75,7.75,0,0,0,3.54-3.7,6.83,6.83,0,0,0,.42-1.54c.25-5.86.15-10.25.2-12a3.74,3.74,0,0,0-.86-2.57,3.59,3.59,0,0,0-1-.72,2.78,2.78,0,0,0-.77-.23l-9,0a3.78,3.78,0,0,0-1.83,1A3.69,3.69,0,0,0,9,6.2Z"/><path class="cls-4" d="M22.85,14.82a5.26,5.26,0,0,0-1.61-2.2,5.13,5.13,0,0,0-2.62-1.07l-11-.16a2.34,2.34,0,0,0-1.26,3.86,1.92,1.92,0,0,0,.79.48l4.92,0v4.5"/><line class="cls-4" x1="13.58" y1="3.97" x2="13.63" y2="11.47"/><line class="cls-4" x1="8.79" y1="6.62" x2="8.82" y2="11.34"/><line class="cls-4" x1="18.22" y1="3.94" x2="18.27" y2="11.54"/><path class="cls-5" d="M2.33,14.28A12.82,12.82,0,0,1,5,6.2a12.27,12.27,0,0,1,7.1-4.46"/><path class="cls-5" d="M.5,13A12.82,12.82,0,0,1,3.15,5,12.31,12.31,0,0,1,10.25.5"/><path class="cls-5" d="M30.86,18.08a12.71,12.71,0,0,1-3.2,7.86,12.21,12.21,0,0,1-7.39,3.93"/><path class="cls-5" d="M32.28,19.14A12.71,12.71,0,0,1,29.08,27a12.21,12.21,0,0,1-7.39,3.93"/></g></g></svg>