<svg xmlns="http://www.w3.org/2000/svg" viewBox="0 0 34.07 34"><defs><style>.cls-1,.cls-2,.cls-6{fill:none;stroke:#ec9e0e;}.cls-1,.cls-2,.cls-5,.cls-6{stroke-miterlimit:10;}.cls-1{stroke-width:2.13px;}.cls-2{stroke-width:2.02px;}.cls-3{fill:#8c5de5;}.cls-4{fill:#ec9e0e;}.cls-5{fill:#dc2e4e;stroke:#dc2e4e;}.cls-5,.cls-6{stroke-width:1.94px;}</style></defs><g id="Layer_2" data-name="Layer 2"><g id="Layer_1-2" data-name="Layer 1"><path class="cls-1" d="M33,20.24a15.48,15.48,0,0,1-2.64,7.32,14.85,14.85,0,0,1-7,5.45"/><path class="cls-2" d="M1,11.06A10.82,10.82,0,0,1,3.76,4.25,10.09,10.09,0,0,1,10.16,1"/><path class="cls-3" d="M16.63,7.07a2.44,2.44,0,0,0-1.72.06c-1.67.69-2.24,3-2.3,3.28,0,3.13,0,6.27.05,9.41a12,12,0,0,0,.92,4.05,8.28,8.28,0,0,0,5,4.65,7.4,7.4,0,0,0,6.74-1.21,7.89,7.89,0,0,0,3-4.11,9.58,9.58,0,0,0,.35-1.71c.22-6.52.13-11.4.18-13.35a5.33,5.33,0,0,0-.73-2.86,3.19,3.19,0,0,0-.86-.8,2,2,0,0,0-.65-.25L19,4.21a3,3,0,0,0-1.55,1.07A4.72,4.72,0,0,0,16.63,7.07Z"/><path class="cls-4" d="M12.82,7.12a3,3,0,0,0-1.9.06c-1.84.71-2.47,3.08-2.54,3.34q0,4.8,0,9.6a11.44,11.44,0,0,0,1,4.13A8.92,8.92,0,0,0,15,29a8.67,8.67,0,0,0,7.43-1.23,8.18,8.18,0,0,0,3.29-4.19,8.81,8.81,0,0,0,.39-1.74c.24-6.64.15-11.62.2-13.6a5.1,5.1,0,0,0-.81-2.92,3.37,3.37,0,0,0-.95-.82,2.65,2.65,0,0,0-.71-.25l-8.41,0a3.27,3.27,0,0,0-1.7,1.09A4.68,4.68,0,0,0,12.82,7.12Z"/><path class="cls-5" d="M10,7.07a2.44,2.44,0,0,0-1.72.06c-1.67.69-2.24,3-2.3,3.28,0,3.13,0,6.27,0,9.41A12.08,12.08,0,0,0,7,23.87a8.28,8.28,0,0,0,5,4.65,7.41,7.41,0,0,0,6.74-1.21,7.89,7.89,0,0,0,3-4.11,9.75,9.75,0,0,0,.36-1.71c.21-6.52.13-11.4.17-13.35a5.14,5.14,0,0,0-.73-2.86,3,3,0,0,0-.86-.8A2,2,0,0,0,20,4.23l-7.62,0a3,3,0,0,0-1.55,1.07A4.72,4.72,0,0,0,10,7.07Z"/><path class="cls-6" d="M22,16.8a6.18,6.18,0,0,0-1.36-2.44,3.79,3.79,0,0,0-2.21-1.2L9.07,13a2.15,2.15,0,0,0-1.28,1.2A3.35,3.35,0,0,0,8,17.27a1.54,1.54,0,0,0,.66.54l4.16.06v5"/><line class="cls-6" x1="14.22" y1="3.19" x2="14.19" y2="13.08"/><line class="cls-6" x1="10.18" y1="5.98" x2="10.13" y2="12.92"/><line class="cls-6" x1="18.14" y1="3.15" x2="18.1" y2="13.15"/></g></g></svg>