<svg xmlns="http://www.w3.org/2000/svg" viewBox="0 0 34.73 31.09"><defs><style>.cls-1{fill:#8c5de5;}.cls-2{fill:#ec9e0e;}.cls-3{fill:#dc2e4e;stroke:#dc2e4e;}.cls-3,.cls-4{stroke-miterlimit:10;stroke-width:2.52px;}.cls-4{fill:none;stroke:#ec9e0e;}</style></defs><g id="Layer_2" data-name="Layer 2"><g id="Layer_1-2" data-name="Layer 1"><path class="cls-1" d="M16.82,4.58a4.44,4.44,0,0,0-2.52.07,5.79,5.79,0,0,0-3.36,3.79L11,19.36a11.45,11.45,0,0,0,1.36,4.69,11.77,11.77,0,0,0,7.37,5.39A13.25,13.25,0,0,0,29.59,28,9.79,9.79,0,0,0,34,23.27a8.71,8.71,0,0,0,.52-2c.31-7.55.19-13.21.26-15.47A5.18,5.18,0,0,0,33.66,2.5a4.51,4.51,0,0,0-1.26-.93,3.57,3.57,0,0,0-.95-.28l-11.14,0A4.59,4.59,0,0,0,18.05,2.5,5,5,0,0,0,16.82,4.58Z"/><path class="cls-2" d="M11.24,4.64a5.38,5.38,0,0,0-2.78.07A6.08,6.08,0,0,0,4.75,8.58c0,3.71,0,7.41.07,11.12a11.06,11.06,0,0,0,1.5,4.79c2.42,4.06,7,5.2,8.13,5.49a15.76,15.76,0,0,0,10.88-1.43,10.35,10.35,0,0,0,4.81-4.86,8.46,8.46,0,0,0,.57-2c.35-7.69.21-13.46.28-15.76a4.86,4.86,0,0,0-1.17-3.38,4.86,4.86,0,0,0-1.39-.95,4.45,4.45,0,0,0-1.05-.29l-12.29,0A5.2,5.2,0,0,0,12.6,2.53,5,5,0,0,0,11.24,4.64Z"/><path class="cls-3" d="M7.15,4.58a4.47,4.47,0,0,0-2.53.07c-2.43.8-3.27,3.49-3.36,3.79,0,3.64.05,7.28.07,10.92a11.56,11.56,0,0,0,1.35,4.69,11.79,11.79,0,0,0,7.37,5.39A13.25,13.25,0,0,0,19.91,28a9.8,9.8,0,0,0,4.37-4.77,8.11,8.11,0,0,0,.51-2c.32-7.55.2-13.21.26-15.47A5.08,5.08,0,0,0,24,2.5a4.67,4.67,0,0,0-1.26-.93,3.68,3.68,0,0,0-.95-.28l-11.14,0A4.61,4.61,0,0,0,8.37,2.5,5,5,0,0,0,7.15,4.58Z"/><path class="cls-4" d="M24.62,15.85a6.88,6.88,0,0,0-2-2.83,6.09,6.09,0,0,0-3.23-1.38L5.76,11.43a3,3,0,0,0-1.88,1.38,3.21,3.21,0,0,0,.33,3.6,2.32,2.32,0,0,0,1,.62l6.07.07v5.8"/><line class="cls-4" x1="13.29" y1="0.08" x2="13.24" y2="11.54"/><line class="cls-4" x1="7.38" y1="3.32" x2="7.3" y2="11.36"/><line class="cls-4" x1="19.02" y1="0.03" x2="18.97" y2="11.63"/></g></g></svg>