<svg xmlns="http://www.w3.org/2000/svg" viewBox="0 0 32.86 31.55"><defs><style>.cls-1{fill:#8c5de5;}.cls-2{fill:#dc2e4e;}.cls-2,.cls-4{stroke:#dc2e4e;stroke-miterlimit:10;stroke-width:2.52px;}.cls-3{fill:#ec9e0e;}.cls-4{fill:none;}</style></defs><g id="Layer_2" data-name="Layer 2"><g id="Layer_1-2" data-name="Layer 1"><path class="cls-1" d="M15,6.17a4.53,4.53,0,0,0-2.52.07A5.79,5.79,0,0,0,9.07,10L9.13,21a11.48,11.48,0,0,0,1.36,4.7A11.74,11.74,0,0,0,17.86,31a13.2,13.2,0,0,0,9.86-1.4,9.76,9.76,0,0,0,4.36-4.76,8.77,8.77,0,0,0,.52-2c.32-7.55.19-13.21.26-15.47A5.14,5.14,0,0,0,31.79,4.1a4.28,4.28,0,0,0-1.26-.93,3.65,3.65,0,0,0-1-.29l-11.14,0A4.43,4.43,0,0,0,16.18,4.1,5,5,0,0,0,15,6.17Z"/><path class="cls-2" d="M10.27,5a4.51,4.51,0,0,0-2.52.06A5.85,5.85,0,0,0,4.39,8.9l.06,10.91a11.6,11.6,0,0,0,1.36,4.7,11.77,11.77,0,0,0,7.37,5.39A13.25,13.25,0,0,0,23,28.5a9.74,9.74,0,0,0,4.36-4.77,8.71,8.71,0,0,0,.52-2c.32-7.55.19-13.21.26-15.47A5.05,5.05,0,0,0,27.11,3,4.51,4.51,0,0,0,25.85,2a3.27,3.27,0,0,0-.94-.28l-11.15,0A4.59,4.59,0,0,0,11.5,3,5.1,5.1,0,0,0,10.27,5Z"/><path class="cls-3" d="M6.49,3.38a5.49,5.49,0,0,0-2.78.07A6.09,6.09,0,0,0,0,7.33c0,3.7.05,7.41.07,11.12a11.06,11.06,0,0,0,1.5,4.78c2.42,4.06,7,5.21,8.13,5.49A15.64,15.64,0,0,0,20.57,27.3a10.41,10.41,0,0,0,4.82-4.86,8.59,8.59,0,0,0,.57-2c.35-7.7.21-13.47.28-15.77a4.86,4.86,0,0,0-1.17-3.38A4.86,4.86,0,0,0,23.68.32,4.45,4.45,0,0,0,22.63,0L10.34,0a5.18,5.18,0,0,0-2.5,1.26A5.1,5.1,0,0,0,6.49,3.38Z"/><path class="cls-4" d="M23.88,15.83a6.66,6.66,0,0,0-2-2.83,6.07,6.07,0,0,0-3.23-1.38L5,11.41a3,3,0,0,0-1.88,1.38,3.19,3.19,0,0,0,.33,3.59,2.23,2.23,0,0,0,1,.62l6.07.07v5.8"/><line class="cls-4" x1="12.56" y1="0.05" x2="12.5" y2="11.52"/><line class="cls-4" x1="6.65" y1="3.29" x2="6.56" y2="11.34"/><line class="cls-4" x1="18.29" y1="0.01" x2="18.23" y2="11.6"/></g></g></svg>